FILE "Thunderhawk (demo) (1993)(Core Design)(EU)(en).img" BINARY
  TRACK 01 MODE1/2352
    INDEX 01 00:00:00
  TRACK 02 AUDIO
    PREGAP 00:02:00
    INDEX 01 02:41:30
  TRACK 03 AUDIO
    INDEX 01 06:19:63
  TRACK 04 AUDIO
    INDEX 01 10:10:50
